<svg xmlns="http://www.w3.org/2000/svg" version="1.1" viewBox="0 0 528 492" style="shape-rendering:geometricPrecision; text-rendering:geometricPrecision; image-rendering:optimizeQuality; fill-rule:evenodd; clip-rule:evenodd">
<g><path style="opacity:1" fill="#000000" d="M 0,0 C 176,0 352,0 528,0C 528,164 528,328 528,492C 352,492 176,492 0,492C 0,328 0,164 0,0 Z"/></g>
<g><path style="opacity:1" fill="#ffffff" d="M 238.5,189.5 C 232.654,191.233 226.654,191.9 220.5,191.5C 212.271,189.773 205.771,185.44 201,178.5C 190.045,157.13 191.045,136.463 204,116.5C 213.194,105.151 225.028,99.6508 239.5,100C 245.746,103.822 246.079,108.155 240.5,113C 225.424,118.311 221.257,128.145 228,142.5C 232.258,145.38 236.758,147.88 241.5,150C 250.48,157.705 252.98,167.205 249,178.5C 246.672,183.327 243.172,186.994 238.5,189.5 Z"/></g>
<g><path style="opacity:1" fill="#ffffff" d="M 160.5,99.5 C 163.85,99.335 167.183,99.5017 170.5,100C 175.822,102.922 176.822,106.922 173.5,112C 167.959,113.685 163.126,116.518 159,120.5C 154.18,127.942 154.346,135.275 159.5,142.5C 163.506,145.505 167.84,148.005 172.5,150C 185.753,162.679 185.753,175.346 172.5,188C 146.222,196.596 130.722,187.096 126,159.5C 121.826,130.151 133.326,110.151 160.5,99.5 Z"/></g>
<path style="opacity:1" fill="#ffffff" d="M 125.5,256 L 308.5,256 L 308.5,276.5 L 125.5,276.5 Z"/>
<path style="opacity:1" fill="#ffffff" d="M 125.5,304 L 356.5,304 L 356.5,324.5 L 125.5,324.5 Z"/>
<path style="opacity:1" fill="#ffffff" d="M 125.5,352 L 232,352.5 L 230.5,372.5 L 125.5,371.5 Z"/>
</svg>