<svg xmlns="http://www.w3.org/2000/svg" viewBox="0 0 240 240">
  <!-- Background with rounded corners -->
  <rect width="240" height="240" rx="24" fill="#090909"/>
  
  <!-- Face shape -->
  <path fill="#000" transform="translate(0, 8)" d="M125.5 209.5c-20.7.2-41.3 0-62-0.5-21.7-1.3-35.2-12.5-40.5-33.5-1.4-21.3-1.9-42.6-1.5-64-.2-17.7 0-35.3.5-53 .5-4 1.1-8 2-12 6.4-17.4 19-27 37.5-28.5 37.7-.7 75.3-.7 113 0 22.4 2.8 35.3 15.3 38.5 37.5.7 38 .7 76 0 114-.4 4.8-1.4 9.5-3 14-7.5 15.8-20 24.3-37.5 25.5-15.7.5-31.3.7-47 .5z"/>
  
  <!-- White face area -->
  <path fill="#fcfcfc" transform="translate(0, 8)" d="M106.5 42.5c15.9-1.8 30.9 1.1 45 8.5 12 10.8 18.5 24.3 19.5 40.5 1.3 28.2-1.7 55.8-9 83-1.5 5.6-5 7.7-10.5 6.5-2.5-2.4-4.3-5.2-5.5-8.5-4.7-5.3-9.3-5.3-14 0-9 19.5-18.3 19.8-28 1-2.8-4.2-6.7-5.7-11.5-4.5-3.2 3.8-6.2 7.8-9 12-5.1 1.3-8.6-.5-10.5-5.5-5.4-18.3-8.4-37-9-56-2.7-19.6.3-38.3 9-56 8.3-11.7 19.5-18.7 33.5-21z"/>
  
  <!-- Left eye -->
  <path fill="#090909" transform="translate(0, 8)" d="M102.5 71.5c2.3-.3 4.5 0 6.5 1 .7 1 .7 2 0 3-5.6 2.1-7.2 5.8-5 11 9.3 3.5 10.8 9 4.5 16.5-5.4 2.6-9.9 1.5-13.5-3.5-5.3-11.6-2.8-21 7.5-28z"/>
  
  <!-- Right eye -->
  <path fill="#0c0c0c" transform="translate(0, 8)" d="M127.5 71.5c2.3-.3 4.5 0 6.5 1 .7 1 .7 2 0 3-5.4 1.4-7.4 4.7-6 10 2.9 2.1 5.6 4.4 8 7 .5 9.8-4 13.3-13.5 10.5-4.4-3.8-6.4-8.6-6-14.5.1-8 3.7-13.7 11-17z"/>
</svg>